<svg xmlns="http://www.w3.org/2000/svg" viewBox="0 0 400 300">
  <title>Wood Duck on Mountain Bike</title>
  <rect width="400" height="300" fill="#A8D5B5"/>
  <rect y="250" width="400" height="50" fill="#5C4033"/>
  <path d="M 0 250 Q 100 245 200 250 Q 300 255 400 250" stroke="#3d2a1e" stroke-width="2" fill="none"/>
  <!-- Mountain bike: knobby tires -->
  <circle cx="100" cy="220" r="38" fill="none" stroke="#111" stroke-width="6"/>
  <circle cx="100" cy="220" r="32" fill="none" stroke="#111" stroke-width="2" stroke-dasharray="4 3"/>
  <circle cx="300" cy="220" r="38" fill="none" stroke="#111" stroke-width="6"/>
  <circle cx="300" cy="220" r="32" fill="none" stroke="#111" stroke-width="2" stroke-dasharray="4 3"/>
  <g stroke="#111" stroke-width="1">
    <line x1="100" y1="185" x2="100" y2="255"/>
    <line x1="63" y1="220" x2="137" y2="220"/>
    <line x1="300" y1="185" x2="300" y2="255"/>
    <line x1="263" y1="220" x2="337" y2="220"/>
  </g>
  <path d="M 100 220 L 200 160 L 300 220 L 200 220 Z" stroke="#e63946" stroke-width="6" fill="none"/>
  <line x1="100" y1="220" x2="130" y2="140" stroke="#e63946" stroke-width="6"/>
  <path d="M 130 140 L 110 128 M 130 140 L 155 128" stroke="#111" stroke-width="5"/>
  <rect x="192" y="152" width="20" height="8" fill="#111" rx="2"/>
  <!-- Wood Duck (very colorful) -->
  <ellipse cx="200" cy="130" rx="42" ry="24" fill="#6b3f21"/>
  <ellipse cx="180" cy="130" rx="22" ry="14" fill="#a45a2a"/>
  <path d="M 158 130 L 180 138 L 180 122 Z" fill="#fff"/>
  <circle cx="235" cy="110" r="20" fill="#1f5f3a"/>
  <path d="M 245 95 Q 258 92 262 100 Q 255 108 245 106 Z" fill="#1a4d30"/>
  <path d="M 250 100 L 265 88 L 268 96 Z" fill="#7a3b2e"/>
  <line x1="228" y1="100" x2="248" y2="102" stroke="#fff" stroke-width="2"/>
  <line x1="230" y1="115" x2="250" y2="118" stroke="#fff" stroke-width="2"/>
  <polygon points="252,110 272,108 252,116" fill="#e63946"/>
  <polygon points="260,113 268,113 264,116" fill="#f0c419"/>
  <circle cx="240" cy="105" r="2.5" fill="#e63946"/>
  <circle cx="240" cy="105" r="1.2" fill="#000"/>
  <ellipse cx="190" cy="130" rx="18" ry="10" fill="#3a2a20"/>
  <line x1="200" y1="152" x2="200" y2="215" stroke="#f0c419" stroke-width="3"/>
</svg>
