<svg xmlns="http://www.w3.org/2000/svg" viewBox="0 0 400 300">
  <title>Canada Goose on BMX</title>
  <rect width="400" height="300" fill="#F7D488"/>
  <rect y="255" width="400" height="45" fill="#C89665"/>
  <!-- BMX: small wheels, low frame, pegs -->
  <circle cx="110" cy="220" r="34" fill="none" stroke="#111" stroke-width="4"/>
  <circle cx="290" cy="220" r="34" fill="none" stroke="#111" stroke-width="4"/>
  <g stroke="#111" stroke-width="1">
    <line x1="110" y1="186" x2="110" y2="254"/>
    <line x1="76" y1="220" x2="144" y2="220"/>
    <line x1="290" y1="186" x2="290" y2="254"/>
    <line x1="256" y1="220" x2="324" y2="220"/>
  </g>
  <line x1="76" y1="220" x2="66" y2="220" stroke="#666" stroke-width="4"/>
  <line x1="324" y1="220" x2="334" y2="220" stroke="#666" stroke-width="4"/>
  <path d="M 110 220 L 200 220 L 290 220" stroke="#c1272d" stroke-width="6" fill="none"/>
  <path d="M 200 220 L 220 165 L 200 220" stroke="#c1272d" stroke-width="6" fill="none"/>
  <line x1="110" y1="220" x2="130" y2="150" stroke="#c1272d" stroke-width="6"/>
  <line x1="130" y1="150" x2="115" y2="140" stroke="#111" stroke-width="4"/>
  <line x1="130" y1="150" x2="150" y2="140" stroke="#111" stroke-width="4"/>
  <rect x="212" y="158" width="18" height="6" fill="#111" rx="1"/>
  <!-- Canada Goose -->
  <ellipse cx="200" cy="135" rx="42" ry="22" fill="#7c6a4a"/>
  <ellipse cx="180" cy="135" rx="20" ry="12" fill="#5a4d33"/>
  <path d="M 180 130 Q 165 132 155 145 L 180 145 Z" fill="#f5f5f5"/>
  <circle cx="150" cy="105" r="14" fill="#111"/>
  <path d="M 150 90 Q 158 88 160 95 Q 156 100 150 100 Z" fill="#111"/>
  <path d="M 145 100 Q 155 108 148 116" fill="#fff"/>
  <ellipse cx="152" cy="112" rx="10" ry="6" fill="#fff"/>
  <polygon points="135,108 118,109 135,114" fill="#111"/>
  <circle cx="146" cy="105" r="1.6" fill="#fff"/>
  <line x1="200" y1="155" x2="200" y2="215" stroke="#333" stroke-width="3"/>
</svg>
