<svg xmlns="http://www.w3.org/2000/svg" viewBox="0 0 400 300">
  <title>Cormorant on Fixed-Gear (Fixie)</title>
  <rect width="400" height="300" fill="#2c3e50"/>
  <circle cx="330" cy="60" r="30" fill="#f5f5f5" opacity="0.6"/>
  <rect y="255" width="400" height="45" fill="#1a252f"/>
  <!-- Fixed-gear bike: minimal, no brakes visible, colorful frame -->
  <circle cx="105" cy="220" r="36" fill="none" stroke="#f5f5f5" stroke-width="3"/>
  <circle cx="295" cy="220" r="36" fill="none" stroke="#f5f5f5" stroke-width="3"/>
  <g stroke="#f5f5f5" stroke-width="0.8">
    <line x1="105" y1="184" x2="105" y2="256"/>
    <line x1="69" y1="220" x2="141" y2="220"/>
    <line x1="80" y1="196" x2="130" y2="244"/>
    <line x1="130" y1="196" x2="80" y2="244"/>
    <line x1="295" y1="184" x2="295" y2="256"/>
    <line x1="259" y1="220" x2="331" y2="220"/>
  </g>
  <path d="M 105 220 L 200 165 L 295 220 L 200 220 Z" stroke="#e91e63" stroke-width="6" fill="none"/>
  <line x1="105" y1="220" x2="145" y2="145" stroke="#e91e63" stroke-width="6"/>
  <!-- Bullhorn bars -->
  <path d="M 145 145 L 125 140 L 120 130" stroke="#f5f5f5" stroke-width="4" fill="none"/>
  <path d="M 145 145 L 165 140 L 170 130" stroke="#f5f5f5" stroke-width="4" fill="none"/>
  <rect x="192" y="158" width="18" height="6" fill="#f5f5f5" rx="1"/>
  <!-- Cormorant (dark, sleek) -->
  <ellipse cx="205" cy="140" rx="42" ry="20" fill="#0f1a26"/>
  <ellipse cx="185" cy="140" rx="20" ry="12" fill="#1a2a3a"/>
  <path d="M 240 130 Q 260 108 250 90 Q 240 78 230 90 Q 235 108 232 125 Z" fill="#0f1a26"/>
  <circle cx="245" cy="88" r="12" fill="#0f1a26"/>
  <polygon points="255,88 285,86 258,94" fill="#f5c451"/>
  <path d="M 275 86 L 285 86 L 280 90 Z" fill="#d4a020"/>
  <circle cx="248" cy="85" r="2" fill="#00c853"/>
  <path d="M 172 132 L 155 128 L 172 138 Z" fill="#3a4a5a"/>
  <line x1="205" y1="160" x2="200" y2="210" stroke="#3a4a5a" stroke-width="3"/>
</svg>
