<svg xmlns="http://www.w3.org/2000/svg" viewBox="0 0 400 300">
  <title>Wood duck on a BMX</title>
  <line x1="20" y1="262" x2="380" y2="262" stroke="#9e9e9e" stroke-width="3" stroke-linecap="round"/>
  <!-- small BMX wheels -->
  <g stroke="#212121" fill="none">
    <circle cx="125" cy="230" r="32" stroke-width="7"/>
    <circle cx="275" cy="230" r="32" stroke-width="7"/>
    <g stroke-width="1.5">
      <path d="M125 198v64M93 230h64M103 208l44 44M103 252l44-44"/>
      <path d="M275 198v64M243 230h64M253 208l44 44M253 252l44-44"/>
    </g>
  </g>
  <!-- compact frame -->
  <g stroke="#00acc1" stroke-width="7" fill="none" stroke-linecap="round">
    <path d="M195 232L172 178"/>
    <path d="M195 232L252 178"/>
    <path d="M174 182L252 178"/>
    <path d="M172 180L125 230"/>
    <path d="M195 232L125 230"/>
    <path d="M256 172L275 230"/>
  </g>
  <!-- tall BMX bars with crossbar -->
  <g stroke="#212121" stroke-width="5" fill="none" stroke-linecap="round">
    <path d="M254 176L250 128"/>
    <path d="M236 128h30"/>
    <path d="M240 140h22"/>
  </g>
  <!-- low saddle -->
  <path d="M158 176h26" stroke="#212121" stroke-width="8" stroke-linecap="round"/>
  <!-- cranks and pegs -->
  <circle cx="195" cy="232" r="9" fill="none" stroke="#212121" stroke-width="4"/>
  <line x1="195" y1="232" x2="211" y2="252" stroke="#212121" stroke-width="5" stroke-linecap="round"/>
  <path d="M204 253h16" stroke="#424242" stroke-width="6" stroke-linecap="round"/>
  <path d="M275 230h14M125 230h-14" stroke="#757575" stroke-width="7" stroke-linecap="round"/>
  <!-- wood duck: standing tall on the pedals like a proper BMX rider -->
  <path d="M136 138 l-24 -8 6 12 -8 10 20 -2z" fill="#4e342e"/>
  <ellipse cx="172" cy="142" rx="38" ry="25" fill="#8d6e63"/>
  <path d="M190 126 C188 148 180 162 172 168 L204 160 C204 146 200 134 196 126 Z" fill="#a1502d"/>
  <path d="M196 130 C212 122 224 112 230 98" stroke="#33691e" stroke-width="12" fill="none" stroke-linecap="round"/>
  <circle cx="234" cy="90" r="15" fill="#2e7d32"/>
  <path d="M238 76 C248 72 252 78 246 86 Z" fill="#33691e"/>
  <path d="M224 82 C230 78 238 78 244 82" stroke="#ffffff" stroke-width="2.5" fill="none"/>
  <path d="M246 88 L264 92 L246 97 Z" fill="#e53935"/>
  <circle cx="238" cy="86" r="2.6" fill="#b71c1c"/>
  <circle cx="238" cy="86" r="1.3" fill="#111"/>
  <path d="M162 132 C186 130 222 142 248 158 C222 156 188 154 164 150 Z" fill="#5d4037"/>
  <polyline points="184,164 196,214 210,250" fill="none" stroke="#ff8f00" stroke-width="6" stroke-linecap="round"/>
  <path d="M202 251h17" stroke="#ff8f00" stroke-width="5" stroke-linecap="round"/>
</svg>
