<svg xmlns="http://www.w3.org/2000/svg" viewBox="0 0 400 300">
  <title>Northern pintail on a gravel bike</title>
  <!-- gravel -->
  <g fill="#bdbdbd">
    <circle cx="40" cy="264" r="2.5"/><circle cx="70" cy="266" r="2"/><circle cx="110" cy="264" r="2.5"/>
    <circle cx="160" cy="266" r="2"/><circle cx="210" cy="264" r="2.5"/><circle cx="260" cy="266" r="2"/>
    <circle cx="310" cy="264" r="2.5"/><circle cx="350" cy="266" r="2"/>
  </g>
  <!-- wide-tire wheels -->
  <g fill="none">
    <circle cx="105" cy="220" r="42" stroke="#3e2723" stroke-width="8" stroke-dasharray="7 3"/>
    <circle cx="295" cy="220" r="42" stroke="#3e2723" stroke-width="8" stroke-dasharray="7 3"/>
    <g stroke="#616161" stroke-width="1.5">
      <path d="M105 178v84M63 220h84M75 190l60 60M75 250l60-60"/>
      <path d="M295 178v84M253 220h84M265 190l60 60M265 250l60-60"/>
    </g>
  </g>
  <!-- frame with frame bag -->
  <g stroke="#5e35b1" stroke-width="6" fill="none" stroke-linecap="round">
    <path d="M195 222L162 144"/>
    <path d="M195 222L266 148"/>
    <path d="M165 150L266 148"/>
    <path d="M162 147L105 220"/>
    <path d="M195 222L105 220"/>
    <path d="M270 143L295 220"/>
  </g>
  <path d="M172 154 L252 152 L196 214 Z" fill="#455a64"/>
  <path d="M186 168 h8" stroke="#90a4ae" stroke-width="2"/>
  <!-- flared drop bars -->
  <path d="M266 148L270 130h17c11 0 13 17 2 19h-8" fill="none" stroke="#212121" stroke-width="5" stroke-linecap="round"/>
  <path d="M146 142h32" stroke="#212121" stroke-width="7" stroke-linecap="round"/>
  <circle cx="195" cy="222" r="11" fill="none" stroke="#37474f" stroke-width="4"/>
  <line x1="195" y1="222" x2="212" y2="245" stroke="#37474f" stroke-width="5" stroke-linecap="round"/>
  <path d="M204 246h18" stroke="#212121" stroke-width="6" stroke-linecap="round"/>
  <!-- pintail: chocolate head, white breast stripe, long pointed tail -->
  <path d="M136 96 L92 74 l12 16 -8 12 30 4z" fill="#424242"/>
  <ellipse cx="172" cy="112" rx="40" ry="26" fill="#b0bec5"/>
  <path d="M198 100 C216 94 230 84 238 70" stroke="#fafafa" stroke-width="11" fill="none" stroke-linecap="round"/>
  <circle cx="242" cy="63" r="14" fill="#4e342e"/>
  <path d="M236 72 C232 78 230 84 229 90" stroke="#fafafa" stroke-width="4" fill="none" stroke-linecap="round"/>
  <path d="M254 61 L274 65 L254 69 Z" fill="#546e7a"/>
  <circle cx="246" cy="59" r="2.4" fill="#111"/>
  <path d="M160 102 C186 102 226 118 258 136 C226 134 190 128 164 122 Z" fill="#90a4ae"/>
  <polyline points="184,134 197,192 212,243" fill="none" stroke="#546e7a" stroke-width="6" stroke-linecap="round"/>
  <path d="M204 244h17" stroke="#546e7a" stroke-width="5" stroke-linecap="round"/>
</svg>
