<svg xmlns="http://www.w3.org/2000/svg" viewBox="0 0 400 300">
  <title>Bufflehead on a kids bike with training wheels</title>
  <line x1="20" y1="262" x2="380" y2="262" stroke="#9e9e9e" stroke-width="3" stroke-linecap="round"/>
  <!-- small wheels -->
  <g stroke="#37474f" fill="none">
    <circle cx="150" cy="234" r="27" stroke-width="6"/>
    <circle cx="270" cy="234" r="27" stroke-width="6"/>
    <g stroke-width="1.5">
      <path d="M150 207v54M123 234h54"/>
      <path d="M270 207v54M243 234h54"/>
    </g>
  </g>
  <!-- training wheels -->
  <circle cx="122" cy="248" r="12" fill="none" stroke="#e53935" stroke-width="4"/>
  <path d="M150 234 L122 240 L122 248" fill="none" stroke="#9e9e9e" stroke-width="3"/>
  <!-- cheerful little frame -->
  <g stroke="#43a047" stroke-width="7" fill="none" stroke-linecap="round">
    <path d="M205 236 L185 182"/>
    <path d="M205 236 L252 186"/>
    <path d="M187 186 L252 186"/>
    <path d="M185 185 L150 234"/>
    <path d="M205 236 L150 234"/>
    <path d="M255 181 L270 234"/>
  </g>
  <path d="M252 186 L248 160 h-20" fill="none" stroke="#212121" stroke-width="5" stroke-linecap="round"/>
  <!-- streamers -->
  <path d="M228 160 l-14 -8 M228 160 l-16 0 M228 160 l-13 7" stroke="#f06292" stroke-width="2.5" stroke-linecap="round"/>
  <path d="M172 180h26" stroke="#212121" stroke-width="7" stroke-linecap="round"/>
  <circle cx="205" cy="236" r="8" fill="none" stroke="#212121" stroke-width="4"/>
  <line x1="205" y1="236" x2="218" y2="253" stroke="#212121" stroke-width="4" stroke-linecap="round"/>
  <path d="M212 254h14" stroke="#424242" stroke-width="5" stroke-linecap="round"/>
  <!-- tiny bufflehead: black-and-white with big white head patch -->
  <path d="M156 136 l-18 -8 4 10 -6 8 15 1z" fill="#212121"/>
  <ellipse cx="186" cy="146" rx="32" ry="21" fill="#fafafa" stroke="#e0e0e0" stroke-width="2"/>
  <path d="M198 134 C186 148 178 158 170 164 L204 158 C205 148 202 140 200 132 Z" fill="#212121"/>
  <path d="M204 136 C214 130 220 122 224 112" stroke="#212121" stroke-width="10" fill="none" stroke-linecap="round"/>
  <circle cx="227" cy="104" r="15" fill="#212121"/>
  <path d="M218 96 A16 16 0 0 1 240 100 L236 112 A12 12 0 0 1 222 108 Z" fill="#fafafa"/>
  <path d="M239 104 L254 108 L239 112 Z" fill="#78909c"/>
  <circle cx="231" cy="102" r="2.2" fill="#111"/>
  <path d="M176 138 C196 138 226 148 248 160 C226 160 200 156 180 152 Z" fill="#cfd8dc"/>
  <polyline points="196,164 206,210 217,251" fill="none" stroke="#f48fb1" stroke-width="5" stroke-linecap="round"/>
  <path d="M210 252h14" stroke="#f48fb1" stroke-width="4" stroke-linecap="round"/>
</svg>
