<svg xmlns="http://www.w3.org/2000/svg" viewBox="0 0 400 300">
  <title>Canvasback on a track bike with disc wheel</title>
  <line x1="20" y1="262" x2="380" y2="262" stroke="#bdbdbd" stroke-width="3" stroke-linecap="round"/>
  <!-- rear disc wheel, front spoked -->
  <circle cx="105" cy="220" r="42" fill="#263238" stroke="#111" stroke-width="4"/>
  <path d="M105 186 A34 34 0 0 1 133 234" fill="none" stroke="#546e7a" stroke-width="2"/>
  <g stroke="#37474f" fill="none">
    <circle cx="295" cy="220" r="42" stroke-width="6"/>
    <g stroke-width="1.5">
      <path d="M295 178v84M253 220h84M265 190l60 60M265 250l60-60"/>
    </g>
  </g>
  <!-- aggressive track frame -->
  <g stroke="#00c853" stroke-width="6" fill="none" stroke-linecap="round">
    <path d="M195 222L164 142"/>
    <path d="M195 222L270 152"/>
    <path d="M167 148L270 150"/>
    <path d="M164 145L105 220"/>
    <path d="M195 222L105 220"/>
    <path d="M274 147L295 220"/>
  </g>
  <path d="M270 150L274 134h15c10 0 10 14 0 14h-6" fill="none" stroke="#212121" stroke-width="5" stroke-linecap="round"/>
  <path d="M148 140h32" stroke="#212121" stroke-width="7" stroke-linecap="round"/>
  <circle cx="195" cy="222" r="12" fill="none" stroke="#212121" stroke-width="4"/>
  <line x1="195" y1="222" x2="213" y2="245" stroke="#212121" stroke-width="5" stroke-linecap="round"/>
  <path d="M205 246h18" stroke="#212121" stroke-width="6" stroke-linecap="round"/>
  <!-- canvasback: rusty head, black chest, canvas-white body, racing low -->
  <path d="M132 106 l-24 -10 5 12 -7 10 19 0z" fill="#37474f"/>
  <ellipse cx="168" cy="114" rx="41" ry="26" fill="#f5f5f0" stroke="#e0e0e0" stroke-width="2"/>
  <path d="M190 98 C188 122 180 134 170 140 L204 132 C204 116 200 106 196 98 Z" fill="#212121"/>
  <path d="M196 102 C214 96 230 88 240 76" stroke="#212121" stroke-width="12" fill="none" stroke-linecap="round"/>
  <circle cx="245" cy="70" r="15" fill="#a1502d"/>
  <path d="M258 70 L280 76 L257 79 Z" fill="#212121"/>
  <circle cx="249" cy="66" r="2.6" fill="#b71c1c"/>
  <circle cx="249" cy="66" r="1.3" fill="#111"/>
  <path d="M156 104 C184 104 226 122 264 142 C226 140 188 134 160 126 Z" fill="#e8e8e0"/>
  <polyline points="182,136 196,194 212,243" fill="none" stroke="#546e7a" stroke-width="6" stroke-linecap="round"/>
  <path d="M204 244h17" stroke="#546e7a" stroke-width="5" stroke-linecap="round"/>
  <!-- speed lines -->
  <path d="M40 100h34M28 124h28M44 148h34" stroke="#b0bec5" stroke-width="3" stroke-linecap="round"/>
</svg>
