<svg xmlns="http://www.w3.org/2000/svg" viewBox="0 0 400 300">
  <title>Mute Swan on Tandem</title>
  <rect width="400" height="300" fill="#DCEEF7"/>
  <rect y="255" width="400" height="45" fill="#7EB86B"/>
  <!-- Tandem bike -->
  <circle cx="70" cy="220" r="34" fill="none" stroke="#222" stroke-width="4"/>
  <circle cx="330" cy="220" r="34" fill="none" stroke="#222" stroke-width="4"/>
  <g stroke="#222" stroke-width="1">
    <line x1="70" y1="186" x2="70" y2="254"/>
    <line x1="36" y1="220" x2="104" y2="220"/>
    <line x1="330" y1="186" x2="330" y2="254"/>
    <line x1="296" y1="220" x2="364" y2="220"/>
  </g>
  <path d="M 70 220 L 150 170 L 200 220 L 250 170 L 330 220 M 150 170 L 200 220 M 250 170 L 200 220" stroke="#3a75c4" stroke-width="6" fill="none"/>
  <line x1="70" y1="220" x2="90" y2="150" stroke="#3a75c4" stroke-width="6"/>
  <line x1="90" y1="150" x2="75" y2="140" stroke="#222" stroke-width="4"/>
  <line x1="90" y1="150" x2="110" y2="140" stroke="#222" stroke-width="4"/>
  <line x1="250" y1="170" x2="255" y2="145" stroke="#3a75c4" stroke-width="6"/>
  <line x1="255" y1="145" x2="240" y2="140" stroke="#222" stroke-width="4"/>
  <line x1="255" y1="145" x2="275" y2="140" stroke="#222" stroke-width="4"/>
  <rect x="140" y="163" width="20" height="6" fill="#552" rx="1"/>
  <rect x="240" y="163" width="20" height="6" fill="#552" rx="1"/>
  <!-- Swan 1 (front) -->
  <ellipse cx="150" cy="130" rx="40" ry="22" fill="#fff"/>
  <path d="M 115 130 Q 90 110 95 80 Q 100 65 115 60 Q 105 78 108 100 Q 112 118 130 128 Z" fill="#fff" stroke="#eee" stroke-width="1"/>
  <circle cx="98" cy="70" r="8" fill="#fff"/>
  <polygon points="93,72 78,72 93,78" fill="#f0803a"/>
  <circle cx="88" cy="66" r="2" fill="#000"/>
  <ellipse cx="86" cy="66" rx="3" ry="3" fill="#000"/>
  <line x1="150" y1="150" x2="70" y2="215" stroke="#f0803a" stroke-width="3"/>
  <!-- Swan 2 (back) -->
  <ellipse cx="255" cy="128" rx="40" ry="22" fill="#fff"/>
  <path d="M 290 128 Q 315 108 310 78 Q 305 63 290 58 Q 300 76 297 98 Q 293 116 275 126 Z" fill="#fff" stroke="#eee" stroke-width="1"/>
  <circle cx="308" cy="68" r="8" fill="#fff"/>
  <polygon points="313,70 328,70 313,76" fill="#f0803a"/>
  <ellipse cx="310" cy="64" rx="3" ry="3" fill="#000"/>
  <line x1="255" y1="148" x2="330" y2="215" stroke="#f0803a" stroke-width="3"/>
</svg>
