<svg xmlns="http://www.w3.org/2000/svg" viewBox="0 0 400 300">
  <title>Snow goose on a fat bike</title>
  <path d="M20 262 Q120 254 200 262 T380 262" fill="none" stroke="#b3e5fc" stroke-width="8" stroke-linecap="round"/>
  <!-- enormous fat tires -->
  <g fill="none">
    <circle cx="110" cy="212" r="40" stroke="#263238" stroke-width="18"/>
    <circle cx="290" cy="212" r="40" stroke="#263238" stroke-width="18"/>
    <circle cx="110" cy="212" r="40" stroke="#546e7a" stroke-width="3" stroke-dasharray="6 6"/>
    <circle cx="290" cy="212" r="40" stroke="#546e7a" stroke-width="3" stroke-dasharray="6 6"/>
    <g stroke="#455a64" stroke-width="2">
      <path d="M110 182v60M80 212h60"/>
      <path d="M290 182v60M260 212h60"/>
    </g>
  </g>
  <!-- burly frame -->
  <g stroke="#0277bd" stroke-width="9" fill="none" stroke-linecap="round">
    <path d="M196 214L168 140"/>
    <path d="M196 214L260 142"/>
    <path d="M170 147L260 142"/>
    <path d="M168 144L110 212"/>
    <path d="M196 214L110 212"/>
    <path d="M264 138L290 212"/>
  </g>
  <path d="M260 142L256 122h-24" fill="none" stroke="#212121" stroke-width="5" stroke-linecap="round"/>
  <path d="M152 138h32" stroke="#212121" stroke-width="8" stroke-linecap="round"/>
  <circle cx="196" cy="214" r="10" fill="none" stroke="#37474f" stroke-width="4"/>
  <line x1="196" y1="214" x2="212" y2="236" stroke="#37474f" stroke-width="5" stroke-linecap="round"/>
  <path d="M204 237h18" stroke="#212121" stroke-width="6" stroke-linecap="round"/>
  <!-- snow goose -->
  <path d="M132 98 l-24 -12 5 14 -7 12 19 0z" fill="#eceff1"/>
  <ellipse cx="168" cy="108" rx="41" ry="27" fill="#fafafa" stroke="#e0e0e0" stroke-width="2"/>
  <!-- black wingtips -->
  <path d="M130 116 l-14 8 16 0z" fill="#212121"/>
  <path d="M194 96 C210 90 222 78 226 62" stroke="#fafafa" stroke-width="12" fill="none" stroke-linecap="round"/>
  <circle cx="229" cy="56" r="14" fill="#fafafa"/>
  <path d="M241 54 L261 58 L241 63 Z" fill="#f06292"/>
  <path d="M243 56 l12 2" stroke="#ad1457" stroke-width="1.5"/>
  <circle cx="233" cy="52" r="2.4" fill="#111"/>
  <path d="M156 98 C182 98 222 112 254 128 C222 128 184 122 158 118 Z" fill="#eceff1"/>
  <path d="M236 124 l16 6 -18 2z" fill="#212121"/>
  <polyline points="182,130 196,186 211,234" fill="none" stroke="#f06292" stroke-width="6" stroke-linecap="round"/>
  <path d="M203 235h17" stroke="#f06292" stroke-width="5" stroke-linecap="round"/>
  <!-- falling snow -->
  <g fill="#e1f5fe">
    <circle cx="60" cy="60" r="4"/><circle cx="120" cy="30" r="3"/><circle cx="330" cy="50" r="4"/>
    <circle cx="360" cy="110" r="3"/><circle cx="40" cy="140" r="3"/><circle cx="300" cy="20" r="3"/>
  </g>
</svg>
