<svg xmlns="http://www.w3.org/2000/svg" viewBox="0 0 400 300">
  <title>Canada goose on a penny-farthing</title>
  <line x1="20" y1="262" x2="380" y2="262" stroke="#9e9e9e" stroke-width="3" stroke-linecap="round"/>
  <!-- giant front wheel -->
  <g stroke="#4e342e" fill="none">
    <circle cx="245" cy="176" r="86" stroke-width="7"/>
    <g stroke-width="1.5">
      <path d="M245 90v172M159 176h172M185 116l120 120M185 236l120-120M210 96l70 160M280 96l-70 160"/>
    </g>
    <circle cx="95" cy="232" r="30" stroke-width="6"/>
    <path d="M95 202v60M65 232h60" stroke-width="1.5"/>
  </g>
  <!-- backbone -->
  <path d="M245 176 C210 176 150 190 95 232" fill="none" stroke="#37474f" stroke-width="7" stroke-linecap="round"/>
  <!-- fork, saddle, bars -->
  <path d="M245 176 L238 92" stroke="#37474f" stroke-width="6" stroke-linecap="round"/>
  <path d="M220 88h30" stroke="#212121" stroke-width="8" stroke-linecap="round"/>
  <path d="M238 90 L258 78 M258 78 l14 6" stroke="#37474f" stroke-width="5" fill="none" stroke-linecap="round"/>
  <!-- cranks on front hub -->
  <circle cx="245" cy="176" r="7" fill="#37474f"/>
  <line x1="245" y1="176" x2="262" y2="198" stroke="#37474f" stroke-width="5" stroke-linecap="round"/>
  <path d="M255 199h16" stroke="#212121" stroke-width="6" stroke-linecap="round"/>
  <!-- Canada goose, perched high -->
  <path d="M204 60 l-24 -10 6 12 -8 10 18 2z" fill="#3e2723"/>
  <ellipse cx="238" cy="62" rx="36" ry="23" fill="#8d6e63"/>
  <path d="M226 46 C250 42 262 46 270 52 L268 66 C252 60 238 56 226 54 Z" fill="#a1887f"/>
  <path d="M258 52 C268 42 272 30 272 18" stroke="#212121" stroke-width="11" fill="none" stroke-linecap="round"/>
  <circle cx="273" cy="14" r="12" fill="#212121"/>
  <path d="M268 18 C272 22 278 22 281 18 L278 10 Z" fill="#ffffff"/>
  <path d="M283 12 L300 16 L283 20 Z" fill="#212121"/>
  <circle cx="276" cy="10" r="2.2" fill="#fff"/>
  <path d="M226 52 C246 54 260 66 272 80 C252 78 236 74 226 70 Z" fill="#6d4c41"/>
  <polyline points="246,80 252,140 262,196" fill="none" stroke="#37474f" stroke-width="6" stroke-linecap="round"/>
  <path d="M254 198h16" stroke="#37474f" stroke-width="5" stroke-linecap="round"/>
</svg>
